<svg width="342" height="228" viewBox="0 0 342 228" fill="none" xmlns="http://www.w3.org/2000/svg">
<path d="M305.991 200.363H0V200.516H305.991V200.363Z" fill="#EBEBEB"/>
<path d="M68.3338 205.497H48.0649V205.65H68.3338V205.497Z" fill="#EBEBEB"/>
<path d="M100.059 209.91H81.5957V210.063H100.059V209.91Z" fill="#EBEBEB"/>
<path d="M58.1993 211.177H34.791V211.33H58.1993V211.177Z" fill="#EBEBEB"/>
<path d="M275.331 210.846H265.601V210.999H275.331V210.846Z" fill="#EBEBEB"/>
<path d="M263.635 210.846H239.572V210.999H263.635V210.846Z" fill="#EBEBEB"/>
<path d="M171.557 205.418H152.995V205.571H171.557V205.418Z" fill="#EBEBEB"/>
<path d="M218.337 205.418H174.213V205.571H218.337V205.418Z" fill="#EBEBEB"/>
<path d="M145.04 173.069H26.8721C25.9464 173.067 25.0591 172.698 24.4051 172.043C23.7511 171.388 23.3838 170.5 23.3838 169.574V3.46382C23.3918 2.54341 23.7627 1.66335 24.4159 1.0148C25.069 0.366246 25.9516 0.0015767 26.8721 0H145.04C145.966 0 146.855 0.368161 147.511 1.02349C148.166 1.67882 148.534 2.56764 148.534 3.49442V169.574C148.534 170.501 148.166 171.39 147.511 172.045C146.855 172.7 145.966 173.069 145.04 173.069ZM26.8721 0.122397C25.9869 0.124018 25.1386 0.476774 24.5133 1.10324C23.888 1.7297 23.5368 2.57868 23.5368 3.46382V169.574C23.5368 170.459 23.888 171.308 24.5133 171.935C25.1386 172.561 25.9869 172.914 26.8721 172.916H145.04C145.925 172.914 146.774 172.561 147.401 171.935C148.027 171.309 148.38 170.46 148.381 169.574V3.46382C148.38 2.57811 148.027 1.72915 147.401 1.10286C146.774 0.476575 145.925 0.124015 145.04 0.122397H26.8721Z" fill="#EBEBEB"/>
<path d="M277.417 173.069H159.243C158.317 173.067 157.429 172.698 156.774 172.043C156.119 171.388 155.751 170.5 155.749 169.574V3.46382C155.759 2.54285 156.131 1.6628 156.785 1.01442C157.439 0.366032 158.322 0.00155951 159.243 0H277.417C278.337 0.00318506 279.218 0.368566 279.869 1.01695C280.521 1.66533 280.891 2.54447 280.899 3.46382V169.574C280.899 170.499 280.533 171.386 279.88 172.041C279.227 172.696 278.342 173.065 277.417 173.069ZM159.243 0.122397C158.358 0.124015 157.509 0.476575 156.882 1.10286C156.256 1.72915 155.904 2.57811 155.902 3.46382V169.574C155.904 170.46 156.256 171.309 156.882 171.935C157.509 172.561 158.358 172.914 159.243 172.916H277.417C278.303 172.914 279.152 172.561 279.778 171.935C280.404 171.309 280.757 170.46 280.759 169.574V3.46382C280.757 2.57811 280.404 1.72915 279.778 1.10286C279.152 0.476575 278.303 0.124015 277.417 0.122397H159.243Z" fill="#EBEBEB"/>
<path d="M255.392 123.4H232.596V200.363H255.392V123.4Z" fill="#E6E6E6"/>
<path d="M251.604 200.363H255.392V193.435H247.62L251.604 200.363Z" fill="#F0F0F0"/>
<path d="M162.598 123.4H139.802V200.363H162.598V123.4Z" fill="#E6E6E6"/>
<path d="M255.399 123.4H159.293V197.701H255.399V123.4Z" fill="#F0F0F0"/>
<path d="M252.455 126.693H162.236V147.072H252.455V126.693Z" fill="#E6E6E6"/>
<path d="M211.605 133.027H203.08C199.408 133.027 195.84 130.511 193.288 126.074H221.384C218.844 130.511 215.307 133.027 211.605 133.027Z" fill="#F0F0F0"/>
<path d="M163.087 200.363H159.293V193.435H167.065L163.087 200.363Z" fill="#F0F0F0"/>
<path d="M252.455 150.364H162.236V170.743H252.455V150.364Z" fill="#E6E6E6"/>
<path d="M211.605 156.667H203.08C199.408 156.667 195.84 154.158 193.288 149.715H221.384C218.844 154.183 215.307 156.667 211.605 156.667Z" fill="#F0F0F0"/>
<path d="M252.455 174.035H162.236V194.414H252.455V174.035Z" fill="#E6E6E6"/>
<path d="M211.605 180.363H203.08C199.408 180.363 195.84 177.848 193.288 173.411H221.384C218.844 177.848 215.307 180.363 211.605 180.363Z" fill="#F0F0F0"/>
<path d="M265.777 23.5919H167.334V71.3755H265.777V23.5919Z" fill="#F0F0F0"/>
<path d="M269.327 23.5919H168.992V71.3755H269.327V23.5919Z" fill="#F5F5F5"/>
<path d="M264.364 67.4037V27.5698L173.962 27.5698V67.4037H264.364Z" fill="white"/>
<path d="M235.956 106.522C237.731 88.1621 238.961 58.3096 238.006 48.3343C237.988 48.1633 237.934 47.9981 237.847 47.8494C237.761 47.7007 237.644 47.572 237.504 47.4715C237.319 47.3359 237.1 47.2552 236.871 47.2385C236.642 47.2218 236.413 47.2698 236.21 47.377C236.007 47.4842 235.838 47.6463 235.723 47.8448C235.608 48.0433 235.551 48.2702 235.558 48.4996C235.724 53.4444 235.919 65.8003 234.867 87.1156C234.34 97.7213 233.588 104.986 234.108 106.522H235.956Z" fill="#F0F0F0"/>
<path d="M241.041 66.9876C245.092 61.7735 253.476 57.6487 262.069 57.0184C265.441 56.7675 251.891 63.4932 246.31 70.2127C241.983 75.4268 237.13 84.0191 235.515 88.7068C236.463 79.0314 236.983 72.2139 241.041 66.9876Z" fill="#F0F0F0"/>
<path d="M232.553 65.8615C228.361 60.0232 218.679 55.5251 208.202 55.0171C204.09 54.8213 219.738 62.1529 225.576 69.668C230.111 75.5002 234.756 85.1695 236.041 90.4754C236.354 79.4719 236.751 71.7059 232.553 65.8615Z" fill="#F0F0F0"/>
<path d="M240.76 49.8031C243.96 45.4519 251.029 41.8779 258.507 41.1497C261.445 40.8621 250.025 46.6575 245.594 52.3C242.149 56.6573 238.489 63.7869 237.388 67.6485C237.571 59.7356 237.565 54.1543 240.76 49.8031Z" fill="#F0F0F0"/>
<path d="M234.316 50.6966C230.76 45.7457 222.566 41.9453 213.692 41.5169C210.21 41.3517 223.484 47.5572 228.38 53.9218C232.223 58.8605 236.164 67.0488 237.247 71.5407C237.529 62.2141 237.865 55.6414 234.316 50.6966Z" fill="#F0F0F0"/>
<path d="M238.611 86.6199C240.925 83.3397 246.12 80.5797 251.671 79.9187C253.85 79.6617 245.453 84.1598 242.247 88.4008C239.756 91.6933 237.143 97.042 236.384 99.9244C236.39 94.0433 236.304 89.9001 238.611 86.6199Z" fill="#F0F0F0"/>
<path d="M234.389 84.7717C232.382 81.516 227.413 78.7682 221.874 78.1073C219.695 77.8502 227.725 82.3238 230.546 86.5281C232.731 89.7961 234.83 95.0959 235.319 97.96C235.919 92.1339 236.421 88.0275 234.389 84.7717Z" fill="#F0F0F0"/>
<path d="M235.203 123.4C239.628 123.4 243.281 122.476 243.532 118.064L244.273 105.292H226.14L226.88 118.064C227.131 122.476 230.785 123.4 235.203 123.4Z" fill="#E6E6E6"/>
<path d="M226.244 108.198H244.181C244.532 108.197 244.871 108.067 245.131 107.832C245.392 107.597 245.557 107.275 245.595 106.926L245.87 104.478C245.892 104.278 245.871 104.076 245.81 103.885C245.748 103.694 245.647 103.519 245.513 103.369C245.379 103.22 245.216 103.1 245.033 103.018C244.85 102.936 244.651 102.893 244.451 102.893H225.975C225.774 102.893 225.576 102.936 225.393 103.018C225.21 103.1 225.046 103.22 224.912 103.369C224.778 103.519 224.677 103.694 224.616 103.885C224.554 104.076 224.534 104.278 224.555 104.478L224.824 106.926C224.863 107.275 225.03 107.598 225.292 107.833C225.553 108.067 225.892 108.198 226.244 108.198Z" fill="#F0F0F0"/>
<path d="M168.448 123.4H156.423L159.985 97.042H168.448V123.4Z" fill="#E6E6E6"/>
<path d="M186.098 123.4H163.308L159.061 92.55H181.857L186.098 123.4Z" fill="#F0F0F0"/>
<path d="M189.139 123.4H165.425L161.184 92.55H184.898L189.139 123.4Z" fill="#F5F5F5"/>
<path d="M167.517 120.97L163.943 94.9796H182.799L186.372 120.97H167.517Z" fill="white"/>
<path d="M178.148 114.973H173.656C173.266 114.974 172.888 114.833 172.593 114.576C172.298 114.32 172.106 113.965 172.053 113.578L170.572 102.813C170.539 102.584 170.556 102.351 170.622 102.129C170.687 101.907 170.8 101.702 170.951 101.528C171.105 101.355 171.293 101.216 171.504 101.122C171.715 101.027 171.944 100.977 172.175 100.977H176.667C177.058 100.978 177.435 101.119 177.729 101.375C178.024 101.632 178.216 101.986 178.271 102.372L179.752 113.137C179.783 113.366 179.765 113.599 179.699 113.82C179.633 114.042 179.52 114.246 179.368 114.42C179.216 114.594 179.029 114.734 178.818 114.829C178.608 114.924 178.379 114.973 178.148 114.973ZM172.64 113.492C172.674 113.733 172.794 113.953 172.977 114.113C173.16 114.272 173.395 114.361 173.638 114.361H178.13C178.274 114.362 178.416 114.331 178.547 114.272C178.677 114.213 178.794 114.126 178.889 114.018C178.983 113.909 179.053 113.781 179.094 113.643C179.135 113.505 179.146 113.36 179.127 113.217L177.646 102.458C177.613 102.217 177.493 101.997 177.31 101.837C177.127 101.678 176.892 101.59 176.649 101.589H172.157C172.013 101.588 171.871 101.618 171.74 101.677C171.609 101.736 171.492 101.823 171.398 101.932C171.302 102.039 171.231 102.165 171.19 102.303C171.148 102.44 171.138 102.585 171.159 102.727L172.64 113.492Z" fill="#F5F5F5"/>
<path d="M129.434 22.1843H38.6284V118.008H129.434V22.1843Z" fill="#E6E6E6"/>
<path d="M139.171 19.0815H32.7532C32.6345 19.0815 32.517 19.105 32.4075 19.1506C32.2979 19.1962 32.1985 19.263 32.1149 19.3472C32.0312 19.4314 31.9651 19.5313 31.9203 19.6411C31.8754 19.751 31.8527 19.8686 31.8535 19.9873C31.8535 20.2259 31.9483 20.4547 32.117 20.6234C32.2857 20.7921 32.5146 20.8869 32.7532 20.8869H139.171C139.409 20.8869 139.638 20.7921 139.807 20.6234C139.976 20.4547 140.07 20.2259 140.07 19.9873C140.071 19.8686 140.048 19.751 140.004 19.6411C139.959 19.5313 139.893 19.4314 139.809 19.3472C139.725 19.263 139.626 19.1962 139.516 19.1506C139.407 19.105 139.289 19.0815 139.171 19.0815Z" fill="#E6E6E6"/>
<path d="M133.296 22.1843H40.4336V118.008H133.296V22.1843Z" fill="#F0F0F0"/>
<path d="M127.898 112.617V27.582L45.825 27.582V112.617H127.898Z" fill="#FAFAFA"/>
<path d="M64.4541 112.617L96.118 27.5759H111.063L79.4048 112.617H64.4541Z" fill="white"/>
<path d="M82.6113 112.617L114.275 27.5759H120.101L88.4374 112.617H82.6113Z" fill="white"/>
<path d="M127.898 112.611V27.5759H127.213V112.611H127.898Z" fill="#E6E6E6"/>
<g opacity="0.6">
<path d="M43.5975 154.874H32.1963L34.0016 17.472H45.409L43.5975 154.874Z" fill="#F0F0F0"/>
<path d="M48.0408 154.874H39.1548L40.9663 17.472H49.8461L48.0408 154.874Z" fill="#E6E6E6"/>
<path d="M54.9989 154.874H43.5977L45.4091 17.472H56.8104L54.9989 154.874Z" fill="#F0F0F0"/>
<path d="M59.4421 154.874H50.5562L52.3676 17.472H61.2536L59.4421 154.874Z" fill="#E6E6E6"/>
<path d="M66.4002 154.874H54.999L56.8105 17.472H68.2117L66.4002 154.874Z" fill="#F0F0F0"/>
</g>
<g opacity="0.6">
<path d="M131.411 154.874H137.855L138.718 17.472H132.274L131.411 154.874Z" fill="#F0F0F0"/>
<path d="M128.902 154.874H133.92L134.789 17.472H129.765L128.902 154.874Z" fill="#E6E6E6"/>
<path d="M124.967 154.874H131.411L132.274 17.472H125.83L124.967 154.874Z" fill="#F0F0F0"/>
<path d="M122.458 154.874H127.476L128.345 17.472H123.32L122.458 154.874Z" fill="#E6E6E6"/>
<path d="M118.522 154.874H124.967L125.83 17.472H119.385L118.522 154.874Z" fill="#F0F0F0"/>
</g>
<path d="M152.996 228C218.528 228 271.653 224.898 271.653 221.072C271.653 217.246 218.528 214.145 152.996 214.145C87.463 214.145 34.3384 217.246 34.3384 221.072C34.3384 224.898 87.463 228 152.996 228Z" fill="#F5F5F5"/>
<path d="M174.183 39.0383C170.511 34.069 171.361 29.7301 174.183 26.609C177.701 22.6923 183.448 22.7229 187.279 24.7241C193.276 27.8513 194.568 41.5536 184.55 43.4874C180.995 42.2465 177.531 40.7599 174.183 39.0383Z" fill="#263238"/>
<path d="M186.11 25.5869C189.782 23.4266 188.76 19.2345 192.077 17.0192C196.692 13.9593 206.636 15.2873 203.527 22.937C200.419 30.5868 211.483 31.0274 208.27 38.6282C205.057 46.2291 195.725 50.8679 193.326 39.8522C191.533 31.5966 199.152 20.9603 193.001 22.1047C189.164 22.8146 187.885 26.7619 187.885 26.7619L186.11 25.5869Z" fill="#263238"/>
<path d="M176.985 57.9852C176.483 59.3744 175.939 60.6351 175.357 61.9386C174.776 63.2421 174.133 64.4967 173.46 65.7513C172.105 68.384 170.403 70.8231 168.399 73.0032C167.826 73.6137 167.197 74.169 166.52 74.6617C165.851 75.1366 165.138 75.5464 164.391 75.8857C163.014 76.5016 161.579 76.9773 160.107 77.3055C157.318 77.9496 154.462 78.2598 151.6 78.2296C151.279 78.2243 150.971 78.1028 150.732 77.8876C150.494 77.6725 150.341 77.3782 150.303 77.0592C150.265 76.7403 150.344 76.4184 150.525 76.1531C150.706 75.8878 150.977 75.6972 151.288 75.6164H151.349C153.909 75.0178 156.43 74.2595 158.895 73.346C160.054 72.9142 161.176 72.3881 162.249 71.7732C162.727 71.4992 163.181 71.186 163.607 70.8368C164.02 70.4919 164.401 70.1109 164.746 69.6985C165.534 68.7671 166.244 67.7723 166.869 66.7243C167.53 65.6411 168.167 64.5212 168.754 63.3523C169.917 61.039 171.018 58.5666 171.967 56.1921V56.1554C172.219 55.4956 172.722 54.9628 173.366 54.6741C174.011 54.3855 174.743 54.3647 175.403 54.6162C176.063 54.8678 176.596 55.3712 176.884 56.0156C177.173 56.66 177.194 57.3927 176.942 58.0525L176.985 57.9852Z" fill="#B55B52"/>
<path d="M176.189 53.4566C171.134 54.0319 168.35 61.6143 168.35 61.6143L173.527 68.9091C173.527 68.9091 179.647 61.9754 180.179 58.8788C180.712 55.6903 179.922 53.0221 176.189 53.4566Z" fill="#263238"/>
<path opacity="0.2" d="M173.424 58.0954C175.119 57.0305 176.967 57.618 178.54 59.5947C178.865 60.162 179.083 60.7844 179.183 61.4307C177.653 64.203 173.522 68.903 173.522 68.903L171.154 65.5677C170.976 63.5971 172.329 58.7502 173.424 58.0954Z" fill="black"/>
<path d="M152.524 75.8857L148.711 73.8295L148.607 78.7988C148.607 78.7988 151.153 79.3495 152.836 77.9909L152.524 75.8857Z" fill="#B55B52"/>
<path d="M144.887 74.0008L145.554 78.0583L148.632 78.7988L148.736 73.8295L144.887 74.0008Z" fill="#B55B52"/>
<path d="M164.103 65.0598L160.762 62.3181L137.996 96.5218L141.368 99.2635C145.211 102.409 153.418 97.3051 159.728 87.8561C166.037 78.4071 167.946 68.2054 164.103 65.0598Z" fill="#44A1A0"/>
<path opacity="0.1" d="M164.103 65.0598L160.762 62.3181L137.996 96.5218L141.368 99.2635C145.211 102.409 153.418 97.3051 159.728 87.8561C166.037 78.4071 167.946 68.2054 164.103 65.0598Z" fill="black"/>
<path d="M156.932 84.1986C163.006 74.5987 164.549 64.6777 160.379 62.0394C156.209 59.4011 147.904 65.0446 141.831 74.6445C135.758 84.2444 134.215 94.1654 138.385 96.8037C142.555 99.4419 150.859 93.7985 156.932 84.1986Z" fill="#44A1A0"/>
<path d="M145.156 85.0287L148.216 80.4144C147.905 79.4683 147.89 78.45 148.173 77.4952C148.523 76.2914 149.067 75.1526 149.782 74.1232C150.428 73.083 151.272 72.1804 152.267 71.4672C153.118 70.9042 153.846 70.7695 154.44 71.0633L155.186 69.9495L155.835 70.4819L155.101 71.6018C155.3 71.9135 155.433 72.2628 155.492 72.6281C155.551 72.9933 155.534 73.3668 155.443 73.7254C155.205 74.8053 154.792 75.839 154.219 76.7853L152.842 76.2223C153.271 75.5695 153.485 74.7993 153.454 74.0191L150.584 78.303C150.979 79.2737 151.061 80.3437 150.817 81.3629C150.037 83.8093 148.545 85.9677 146.533 87.5623C145.603 88.2069 144.776 88.3926 144.054 88.1192L143.314 89.233L142.665 88.7006L143.369 87.6419C143.15 87.2779 143.009 86.8722 142.955 86.4508C142.901 86.0293 142.936 85.6013 143.057 85.1939C143.388 83.8294 143.933 82.526 144.672 81.3323L146.08 82.0055C145.768 82.5557 145.518 83.1386 145.333 83.7435C145.2 84.1584 145.14 84.5933 145.156 85.0287ZM152.855 73.4378C152.513 73.4712 152.192 73.6127 151.937 73.8417C151.227 74.4288 150.702 75.2088 150.425 76.0876C150.299 76.4615 150.263 76.86 150.321 77.2504L152.855 73.4378ZM145.707 85.6774C145.895 85.706 146.087 85.6922 146.269 85.6372C146.451 85.5821 146.618 85.4871 146.759 85.3592C147.634 84.6776 148.276 83.7409 148.595 82.6787C148.717 82.2532 148.707 81.8005 148.565 81.3813L145.707 85.6774Z" fill="white"/>
<path opacity="0.1" d="M159.758 73.6704C160.211 70.6716 159.758 68.2665 158.339 67.0854C155.211 64.5212 148.547 68.6827 143.4 76.3753C141.237 79.5437 139.64 83.064 138.682 86.779C139.208 83.2662 140.952 78.9395 143.712 74.7842C148.834 67.0915 155.523 62.9362 158.651 65.4943C160.34 66.8712 160.646 69.9373 159.758 73.6704Z" fill="black"/>
<path d="M204.127 187.762L198.986 188.252L196.367 176.275L201.508 175.786L204.127 187.762Z" fill="#B55B52"/>
<path d="M232.761 180.357L227.981 182.23L223.373 170.871L228.153 168.999L232.761 180.357Z" fill="#B55B52"/>
<path d="M226.592 179.88L231.831 177.273C231.921 177.228 232.024 177.217 232.122 177.242C232.22 177.266 232.305 177.325 232.363 177.407L235.019 181.257C235.087 181.357 235.132 181.469 235.151 181.588C235.171 181.707 235.165 181.828 235.134 181.944C235.102 182.06 235.046 182.168 234.97 182.261C234.893 182.354 234.797 182.428 234.689 182.481C232.853 183.362 232.045 183.797 229.738 184.929C228.318 185.632 225.154 187.291 223.196 188.264C221.237 189.237 220.173 187.352 220.901 186.771C224.163 184.17 225.24 182.205 225.956 180.559C226.082 180.265 226.307 180.025 226.592 179.88Z" fill="#263238"/>
<path d="M197.983 185.584H204.164C204.274 185.584 204.381 185.621 204.469 185.688C204.556 185.756 204.619 185.85 204.647 185.957L205.993 190.853C206.027 190.968 206.033 191.09 206.011 191.208C205.989 191.327 205.939 191.438 205.866 191.533C205.792 191.629 205.698 191.705 205.589 191.757C205.48 191.809 205.361 191.835 205.241 191.832C203.08 191.795 202.046 191.832 199.329 191.832H191.031C188.772 191.832 188.277 189.543 189.195 189.341C193.387 188.411 195.804 187.132 197.095 185.914C197.337 185.693 197.655 185.574 197.983 185.584Z" fill="#263238"/>
<path opacity="0.2" d="M196.373 176.281L197.719 182.45H202.97L201.514 175.786L196.373 176.281Z" fill="black"/>
<path opacity="0.2" d="M228.153 169.005L223.373 170.878L225.754 176.728L230.527 174.855L228.153 169.005Z" fill="black"/>
<path d="M191.881 48.2853C195.969 47.8141 198.613 49.7602 198.796 53.8421C199.335 68.2298 200.926 71.5407 203.331 78.9824L182.946 84.6554C175.7 68.9642 173.154 61.5654 172.347 58.0832C172.179 57.2739 172.28 56.4318 172.636 55.6858C172.992 54.9398 173.582 54.3309 174.317 53.9523C179.743 50.9297 185.711 49.0042 191.881 48.2853Z" fill="#263238"/>
<path d="M185.682 38.6405C185.927 41.78 186.741 47.2083 189.354 48.6464C189.354 48.6464 188.968 50.5864 182.212 57.055C178.044 53.5423 180.174 51.1861 180.174 51.1861C183.277 49.4665 182.548 47.2266 181.325 45.0663L185.682 38.6405Z" fill="#B55B52"/>
<path opacity="0.2" d="M185.211 39.3442C185.656 41.1284 185.719 42.9869 185.394 44.797C185.162 46.021 183.827 46.9512 182.334 47.4836C182.131 46.6334 181.796 45.82 181.343 45.0724L185.211 39.3442Z" fill="black"/>
<path d="M186.881 32.7104C187.878 37.7837 188.411 39.9073 186.563 43.1141C183.778 47.961 177.328 48.0834 174.831 43.4079C172.585 39.2035 171.324 31.615 175.694 28.347C176.655 27.6228 177.785 27.1565 178.977 26.9922C180.169 26.8279 181.383 26.9712 182.504 27.4085C183.625 27.8458 184.616 28.5624 185.382 29.4904C186.148 30.4184 186.664 31.5268 186.881 32.7104Z" fill="#B55B52"/>
<path d="M189.531 35.8009C189.605 36.2901 189.582 36.7892 189.462 37.2692C189.342 37.7493 189.128 38.2009 188.833 38.5977C188.037 39.6564 186.838 39.1424 186.385 37.9857C185.981 36.9331 185.901 35.1094 187.027 34.4729C187.274 34.3378 187.55 34.266 187.831 34.2641C188.112 34.2621 188.389 34.3301 188.637 34.4618C188.885 34.5934 189.097 34.7848 189.253 35.0185C189.409 35.2523 189.504 35.5212 189.531 35.8009Z" fill="#B55B52"/>
<path d="M182.432 30.0237C182.242 31.9637 183.796 35.2806 186.715 36.0517C189.739 32.5757 187.744 27.8083 184.965 27.7104C182.187 27.6125 182.432 30.0237 182.432 30.0237Z" fill="#263238"/>
<path d="M178.356 24.7363C173.895 24.9382 169.109 26.9272 170.768 33.916C174.66 33.1021 185.492 31.8903 186.324 29.1119C185.229 25.5441 181.282 24.6016 178.356 24.7363Z" fill="#263238"/>
<path d="M182.945 84.6554C182.945 84.6554 181.758 125.83 185.069 141.368C188.502 157.536 196.256 180.645 196.256 180.645L203.539 180.174C203.539 180.174 198.832 149.96 197.419 137.494C195.424 120.309 197.902 80.4878 197.902 80.4878L182.945 84.6554Z" fill="#44A1A0"/>
<path opacity="0.2" d="M193.203 97.5315C193.533 93.7984 196.348 94.5144 196.979 99.5694C196.703 107.525 196.507 116.76 196.667 124.844C193.631 118.914 192.45 106.026 193.203 97.5315Z" fill="black"/>
<path d="M204.463 180.645L195.693 181.238L194.476 177.126L203.967 176.122L204.463 180.645Z" fill="#263238"/>
<path d="M190.137 82.6542C190.137 82.6542 196.342 117.17 204.769 135.744C211.574 150.743 223.906 174.91 223.906 174.91L230.595 172.407C230.595 172.407 220.136 144.972 216.354 134.422C206.936 108.107 212.07 92.1338 203.331 78.9823L190.137 82.6542Z" fill="#44A1A0"/>
<path d="M231.384 173.044L223.667 175.731L221.47 171.777L230.656 169.501L231.384 173.044Z" fill="#263238"/>
<path d="M203.301 77.7217L204.733 79.2945C204.843 79.4169 204.733 79.6066 204.476 79.6678L183.099 85.6224C182.915 85.6713 182.738 85.6224 182.695 85.5122L182.004 83.7375C181.955 83.6151 182.083 83.4621 182.285 83.407L202.927 77.6605C202.989 77.6365 203.057 77.6295 203.122 77.6403C203.188 77.6511 203.249 77.6792 203.301 77.7217Z" fill="#263238"/>
<path d="M201.171 80.7815L201.728 80.6224C201.838 80.5918 201.905 80.5123 201.875 80.4449L200.957 78.15C200.957 78.0827 200.822 78.0521 200.712 78.0827L200.155 78.2357C200.045 78.2357 199.978 78.3458 200.002 78.4132L200.926 80.7142C200.951 80.7815 201.061 80.8121 201.171 80.7815Z" fill="#44A1A0"/>
<path d="M184.708 85.3591L185.265 85.2062C185.369 85.2062 185.442 85.096 185.412 85.0287L184.494 82.7337C184.494 82.6664 184.353 82.6358 184.243 82.6664L183.692 82.8194C183.582 82.8194 183.515 82.9296 183.539 82.9969L184.457 85.298C184.488 85.3653 184.598 85.3897 184.708 85.3591Z" fill="#44A1A0"/>
<path d="M192.94 83.0704L193.496 82.9174C193.607 82.8868 193.674 82.8072 193.643 82.7399L192.725 80.4388C192.725 80.3715 192.585 80.3409 192.474 80.3715L191.924 80.5245C191.813 80.5245 191.746 80.6408 191.771 80.7081L192.695 83.003C192.719 83.0704 192.829 83.101 192.94 83.0704Z" fill="#44A1A0"/>
<path d="M179.672 36.1069C179.776 36.5169 179.672 36.9025 179.384 36.9698C179.097 37.0371 178.815 36.7678 178.711 36.3578C178.607 35.9478 178.711 35.5684 178.999 35.4949C179.287 35.4215 179.568 35.6846 179.672 36.1069Z" fill="#263238"/>
<path d="M175.075 37.2942C175.186 37.6981 175.075 38.0836 174.788 38.1571C174.5 38.2305 174.219 37.949 174.115 37.5451C174.011 37.1412 174.115 36.7495 174.402 36.6822C174.69 36.6149 174.971 36.8841 175.075 37.2942Z" fill="#263238"/>
<path d="M174.525 36.676L173.479 36.6454C173.479 36.6454 174.176 37.2818 174.525 36.676Z" fill="#263238"/>
<path d="M176.477 37.6736C176.357 38.6956 176.098 39.6963 175.706 40.6478C175.952 40.7419 176.215 40.7808 176.477 40.7617C176.739 40.7427 176.994 40.6662 177.224 40.5377L176.477 37.6736Z" fill="#A02724"/>
<path d="M179.023 41.7677C178.999 41.7636 178.977 41.7527 178.96 41.7364C178.943 41.7201 178.93 41.6991 178.925 41.6759C178.92 41.6606 178.919 41.6446 178.921 41.6288C178.923 41.6129 178.928 41.5976 178.936 41.5839C178.944 41.5701 178.955 41.5581 178.967 41.5487C178.98 41.5393 178.995 41.5326 179.011 41.529C179.519 41.4085 179.993 41.1694 180.391 40.8312C180.79 40.493 181.103 40.0653 181.305 39.5829C181.31 39.567 181.318 39.5522 181.329 39.5395C181.34 39.5267 181.353 39.5163 181.368 39.5089C181.383 39.5014 181.399 39.4971 181.416 39.4962C181.432 39.4952 181.449 39.4977 181.465 39.5034C181.494 39.5145 181.519 39.5363 181.534 39.5646C181.549 39.5928 181.552 39.6256 181.544 39.6564C181.333 40.1775 181.001 40.6409 180.575 41.008C180.15 41.3752 179.643 41.6356 179.096 41.7677C179.072 41.7749 179.047 41.7749 179.023 41.7677Z" fill="#263238"/>
<path d="M180.571 34.271C180.528 34.2653 180.487 34.2461 180.455 34.2159C180.217 34.0169 179.936 33.8776 179.634 33.8095C179.331 33.7414 179.017 33.7464 178.717 33.8242C178.655 33.8436 178.587 33.8379 178.529 33.8081C178.47 33.7784 178.426 33.7271 178.405 33.6651C178.393 33.6346 178.388 33.6021 178.39 33.5696C178.391 33.5371 178.4 33.5052 178.414 33.476C178.428 33.4468 178.449 33.4208 178.473 33.3996C178.498 33.3785 178.527 33.3626 178.558 33.353C178.937 33.2502 179.334 33.2399 179.718 33.323C180.101 33.406 180.459 33.58 180.761 33.8303C180.802 33.8651 180.831 33.9121 180.843 33.9643C180.855 34.0166 180.85 34.0714 180.829 34.1208C180.808 34.1701 180.771 34.2113 180.725 34.2383C180.679 34.2653 180.625 34.2768 180.571 34.271Z" fill="#263238"/>
<path d="M172.34 35.7275H172.292C172.261 35.7172 172.233 35.7009 172.208 35.6796C172.184 35.6582 172.164 35.6323 172.15 35.6033C172.136 35.5743 172.127 35.5428 172.125 35.5105C172.123 35.4782 172.128 35.4459 172.139 35.4154C172.258 35.0416 172.465 34.7019 172.743 34.425C173.021 34.1481 173.362 33.942 173.736 33.8242C173.767 33.816 173.8 33.814 173.832 33.8185C173.864 33.823 173.895 33.8338 173.923 33.8503C173.951 33.8668 173.975 33.8887 173.994 33.9147C174.014 33.9407 174.028 33.9703 174.036 34.0017C174.05 34.0658 174.039 34.1331 174.005 34.1892C173.971 34.2453 173.916 34.2856 173.852 34.3016C173.561 34.4009 173.299 34.5682 173.086 34.7897C172.873 35.0111 172.716 35.2802 172.628 35.5745C172.607 35.6309 172.566 35.6776 172.513 35.7058C172.46 35.734 172.399 35.7417 172.34 35.7275Z" fill="#263238"/>
<path d="M196.293 57.9179C194.702 61.1981 193.049 64.4171 191.305 67.6178C190.436 69.2212 189.567 70.8246 188.643 72.4035C187.719 73.9824 186.807 75.5674 185.712 77.1525C185.461 77.5441 185.149 77.9603 184.855 78.3764L184.745 78.5233L184.69 78.6029L184.598 78.7191C184.47 78.8783 184.341 79.0129 184.212 79.1475C183.979 79.3847 183.727 79.6036 183.46 79.8023C182.578 80.4469 181.621 80.9793 180.608 81.3874C178.821 82.109 176.979 82.6861 175.1 83.1132C171.503 83.9447 167.85 84.5153 164.17 84.8206L163.754 82.2136C165.461 81.7607 167.199 81.2833 168.907 80.7876C170.614 80.2919 172.309 79.7656 173.962 79.1904C175.571 78.6484 177.143 78.0024 178.668 77.2565C179.311 76.9395 179.916 76.5515 180.473 76.0999C180.564 76.0241 180.648 75.9401 180.724 75.8489C180.746 75.8217 180.767 75.7931 180.785 75.7633L180.92 75.5552C181.134 75.2186 181.355 74.9004 181.575 74.5209C182.444 73.0583 183.301 71.4916 184.133 69.925L186.611 65.1699L191.507 55.574L196.293 57.9179Z" fill="#B55B52"/>
<path d="M165.431 82.2381L161.826 80.855L162.132 85.9405C162.132 85.9405 164.966 85.9406 166.275 84.1964L165.431 82.2381Z" fill="#B55B52"/>
<path d="M158.993 81.0019L158.222 84.7411L162.132 85.9405L161.826 80.855L158.993 81.0019Z" fill="#B55B52"/>
<path d="M191.856 50.9169C189.843 51.841 187.505 60.2068 187.505 60.2068L196.226 61.1982C196.226 61.1982 197.915 57.1346 197.572 55.0477C197.058 51.7124 194.151 49.8643 191.856 50.9169Z" fill="#263238"/>
<path d="M223.986 181.373C223.952 181.315 223.925 181.254 223.906 181.189C223.878 181.121 223.869 181.046 223.879 180.973C223.89 180.9 223.921 180.831 223.967 180.773C224.39 180.259 226.262 180.467 226.47 180.492C226.494 180.493 226.517 180.503 226.536 180.518C226.555 180.533 226.568 180.554 226.574 180.577C226.582 180.6 226.583 180.624 226.576 180.647C226.57 180.67 226.556 180.691 226.538 180.706C226.005 181.153 225.014 181.869 224.377 181.685C224.294 181.664 224.216 181.625 224.148 181.571C224.081 181.517 224.025 181.45 223.986 181.373ZM226.146 180.706C225.393 180.645 224.384 180.657 224.157 180.926C224.14 180.955 224.131 180.988 224.131 181.021C224.131 181.055 224.14 181.087 224.157 181.116C224.175 181.194 224.213 181.265 224.266 181.324C224.32 181.383 224.388 181.427 224.463 181.453C224.8 181.55 225.424 181.275 226.158 180.706H226.146Z" fill="#44A1A0"/>
<path d="M224.444 179.684C224.42 179.639 224.402 179.592 224.389 179.543C224.363 179.449 224.371 179.348 224.41 179.258C224.449 179.168 224.517 179.094 224.603 179.048C224.683 178.996 224.773 178.962 224.867 178.948C224.961 178.934 225.057 178.941 225.148 178.968C225.876 179.164 226.549 180.504 226.58 180.559C226.591 180.578 226.596 180.599 226.596 180.62C226.596 180.642 226.591 180.663 226.58 180.682C226.568 180.699 226.551 180.714 226.532 180.723C226.513 180.733 226.491 180.737 226.47 180.737C225.691 180.637 224.973 180.264 224.444 179.684ZM226.225 180.425C225.974 179.984 225.509 179.317 225.08 179.201C225.024 179.182 224.965 179.177 224.906 179.186C224.848 179.194 224.792 179.216 224.744 179.25C224.609 179.335 224.609 179.415 224.628 179.47C224.719 179.825 225.625 180.32 226.243 180.449L226.225 180.425Z" fill="#44A1A0"/>
<path d="M195.223 186.599C194.795 186.634 194.367 186.533 193.999 186.312C193.902 186.242 193.823 186.15 193.769 186.043C193.715 185.937 193.686 185.819 193.687 185.7C193.678 185.635 193.688 185.569 193.715 185.51C193.742 185.45 193.785 185.399 193.84 185.363C194.397 184.984 196.502 185.938 196.9 186.134C196.924 186.145 196.943 186.164 196.957 186.187C196.97 186.21 196.975 186.236 196.973 186.263C196.97 186.288 196.958 186.312 196.941 186.331C196.923 186.349 196.9 186.362 196.875 186.367C196.334 186.502 195.78 186.58 195.223 186.599ZM194.237 185.535C194.152 185.529 194.067 185.549 193.993 185.59C193.993 185.59 193.944 185.632 193.95 185.706C193.951 185.786 193.972 185.865 194.009 185.936C194.046 186.007 194.099 186.069 194.164 186.116C194.525 186.391 195.388 186.428 196.49 186.22C195.784 185.879 195.031 185.647 194.256 185.535H194.237Z" fill="#44A1A0"/>
<path d="M196.905 186.391H196.856C196.158 186.11 194.751 184.978 194.83 184.396C194.83 184.268 194.934 184.109 195.253 184.072C196.477 183.925 197.003 186.159 197.027 186.251C197.031 186.273 197.029 186.296 197.022 186.317C197.014 186.339 197.001 186.358 196.985 186.373C196.961 186.388 196.933 186.394 196.905 186.391ZM195.369 184.298H195.283C195.155 184.298 195.087 184.353 195.075 184.415C195.032 184.751 196.005 185.639 196.715 186.03C196.55 185.498 196.109 184.298 195.369 184.298Z" fill="#44A1A0"/>
<path d="M179.121 35.4949H178.068C178.068 35.4949 178.772 36.1069 179.121 35.4949Z" fill="#263238"/>
<path d="M181.526 191.838H215.014C215.244 191.838 215.465 191.929 215.628 192.092C215.791 192.255 215.883 192.476 215.883 192.707V195.534H180.663V192.707C180.663 192.477 180.754 192.257 180.915 192.095C181.077 191.932 181.297 191.84 181.526 191.838Z" fill="#263238"/>
<path d="M216.182 204.891H180.963V208.582H216.182V204.891Z" fill="#263238"/>
<path opacity="0.5" d="M216.182 204.891H192.896V208.582H216.182V204.891Z" fill="black"/>
<path d="M196.287 195.528L192.327 220.313C192.294 220.517 192.19 220.703 192.033 220.837C191.876 220.972 191.677 221.046 191.47 221.048H189.53C189.405 221.048 189.281 221.02 189.167 220.968C189.054 220.915 188.953 220.838 188.871 220.743C188.79 220.648 188.73 220.536 188.696 220.415C188.662 220.295 188.654 220.168 188.674 220.044L192.596 195.504L196.287 195.528Z" fill="#263238"/>
<path opacity="0.5" d="M196.287 195.528L195.987 197.413H192.291L192.597 195.528H196.287Z" fill="black"/>
<path d="M184.353 195.528L180.394 220.313C180.36 220.517 180.256 220.703 180.099 220.837C179.943 220.972 179.743 221.046 179.537 221.048H177.597C177.471 221.048 177.348 221.02 177.234 220.968C177.12 220.915 177.019 220.838 176.938 220.743C176.856 220.648 176.796 220.536 176.762 220.415C176.728 220.295 176.721 220.168 176.74 220.044L180.663 195.504L184.353 195.528Z" fill="#263238"/>
<path d="M219.8 220.069L215.883 195.528H212.211L216.152 220.313C216.184 220.518 216.288 220.704 216.445 220.839C216.602 220.973 216.802 221.047 217.009 221.048H218.943C219.066 221.047 219.187 221.02 219.299 220.969C219.411 220.918 219.511 220.844 219.592 220.751C219.672 220.659 219.733 220.55 219.769 220.432C219.805 220.315 219.815 220.191 219.8 220.069Z" fill="#263238"/>
<path opacity="0.5" d="M216.183 197.413L215.883 195.528H212.187L212.486 197.413H216.183Z" fill="black"/>
<path d="M207.866 220.069L203.949 195.528H200.277L204.219 220.313C204.251 220.518 204.354 220.704 204.511 220.839C204.669 220.973 204.868 221.047 205.075 221.048H207.009C207.132 221.047 207.254 221.02 207.365 220.969C207.477 220.918 207.577 220.844 207.658 220.751C207.739 220.659 207.799 220.55 207.835 220.432C207.871 220.315 207.882 220.191 207.866 220.069Z" fill="#263238"/>
<path opacity="0.5" d="M207.866 220.069L203.949 195.528H200.277L204.219 220.313C204.251 220.518 204.354 220.704 204.511 220.839C204.669 220.973 204.868 221.047 205.075 221.048H207.009C207.132 221.047 207.254 221.02 207.365 220.969C207.477 220.918 207.577 220.844 207.658 220.751C207.739 220.659 207.799 220.55 207.835 220.432C207.871 220.315 207.882 220.191 207.866 220.069Z" fill="black"/>
<path opacity="0.5" d="M192.597 191.838H215.014C215.244 191.838 215.465 191.929 215.628 192.092C215.791 192.255 215.883 192.476 215.883 192.707V195.534H192.627V191.862L192.597 191.838Z" fill="black"/>
<path d="M89.215 217.7L94.117 208.704L76.5837 193.337L75.2129 217.7H89.215Z" fill="#44A1A0"/>
<path opacity="0.1" d="M89.215 217.7L94.117 208.704L76.5837 193.337L75.2129 217.7H89.215Z" fill="black"/>
<path d="M149.642 115.187C159.476 108.456 167.713 109.147 170.449 111.112C173.185 113.076 164.494 127.996 164.494 127.996C161.245 127.052 158.236 125.419 155.673 123.209C153.11 120.999 151.053 118.263 149.642 115.187Z" fill="#44A1A0"/>
<path opacity="0.2" d="M154.323 121.95C159.862 116.509 165.51 114.765 167.04 115.677C168.57 116.589 163.656 127.078 163.656 127.078C163.656 127.078 157.016 128.033 154.323 121.95Z" fill="black"/>
<path d="M64.1907 136.288L63.6338 136.007C65.1713 132.981 66.98 130.101 69.0376 127.402L69.5333 127.782C67.5017 130.452 65.7137 133.299 64.1907 136.288Z" fill="#44A1A0"/>
<path d="M61.278 143.204L60.666 143.002C61.1311 141.637 61.6574 140.272 62.2327 138.951L62.808 139.201C62.2572 140.499 61.737 141.845 61.278 143.204Z" fill="#44A1A0"/>
<path d="M175.706 160.186C175.706 190.571 152.83 215.197 119.808 215.197C86.7852 215.197 60.0171 190.571 60.0171 160.186C60.0171 129.801 86.7852 105.175 119.808 105.175C152.83 105.175 175.706 129.801 175.706 160.186Z" fill="#44A1A0"/>
<path opacity="0.1" d="M111.84 209.371L109.447 214.377C111.177 214.659 112.933 214.863 114.716 214.989L111.84 209.371Z" fill="black"/>
<path d="M108.216 221.072L115.095 208.704L93.0944 200.663L90.2793 221.072H108.216Z" fill="#44A1A0"/>
<path d="M140.26 221.072L134.299 208.704L155.247 200.663L156.637 221.072H140.26Z" fill="#44A1A0"/>
<path opacity="0.2" d="M155.309 168.136C155.309 176.361 148.038 183.026 139.097 183.026C130.156 183.026 122.917 176.361 122.917 168.136C122.917 159.911 130.162 153.246 139.097 153.246C148.032 153.246 155.309 159.911 155.309 168.136Z" fill="black"/>
<path opacity="0.2" d="M133.724 173.007C135.242 173.007 136.472 170.717 136.472 167.891C136.472 165.066 135.242 162.775 133.724 162.775C132.207 162.775 130.977 165.066 130.977 167.891C130.977 170.717 132.207 173.007 133.724 173.007Z" fill="black"/>
<path opacity="0.4" d="M114.074 140.364C114.863 142.769 114.135 145.395 112.452 146.221C110.769 147.047 108.78 145.762 107.972 143.357C107.164 140.952 107.905 138.326 109.588 137.5C111.271 136.674 113.284 137.953 114.074 140.364Z" fill="black"/>
<path opacity="0.4" d="M156.667 140.474C156.055 142.88 156.808 145.474 158.326 146.264C159.843 147.053 161.557 145.744 162.157 143.332C162.756 140.921 162.016 138.332 160.498 137.543C158.981 136.754 157.279 138.063 156.667 140.474Z" fill="black"/>
<path opacity="0.2" d="M148.344 173.007C149.862 173.007 151.092 170.717 151.092 167.891C151.092 165.066 149.862 162.775 148.344 162.775C146.827 162.775 145.597 165.066 145.597 167.891C145.597 170.717 146.827 173.007 148.344 173.007Z" fill="black"/>
<path d="M102.329 114.685C91.6748 105.861 82.134 105.175 78.8415 106.779C75.5491 108.382 84.1107 125.683 84.1107 125.683C84.1107 125.683 95.7996 124.997 102.329 114.685Z" fill="#44A1A0"/>
<path opacity="0.2" d="M96.3323 121.038C90.4878 114.306 84.1722 111.503 82.3301 112.201C80.4881 112.898 85.1575 124.844 85.1575 124.844C85.1575 124.844 92.6849 127.011 96.3323 121.038Z" fill="black"/>
<path opacity="0.4" d="M123.847 109.961H132.849C132.849 109.961 130.891 107.807 124.245 107.152C120.481 106.846 116.693 107.052 112.984 107.764C112.984 107.764 120.402 107.599 123.847 109.961Z" fill="black"/>
</svg>
